<svg width="151" height="72" viewBox="0 0 151 72" fill="none" xmlns="http://www.w3.org/2000/svg">
<path d="M115.395 0.00532821C96.0719 0.344524 80.6788 16.2814 81.0127 35.6048C81.3518 54.9282 97.2887 70.3212 116.612 69.9874C135.936 69.6482 151.329 53.7114 150.995 34.388C150.656 15.0646 134.719 -0.328484 115.395 0.00532821ZM116.391 57.071C104.202 57.2864 94.1498 47.5735 93.9344 35.384C93.719 23.1945 103.432 13.1424 115.621 12.9271C127.811 12.7117 137.863 22.4246 138.078 34.6141C138.294 46.8036 128.581 56.8557 116.391 57.071Z" fill="#FECC00"/>
<path d="M1.34473 3.99438L41.3164 42.1243L60.5645 23.9192L61.4082 23.1213V39.8186L61.2539 39.967L41.6611 58.6868L41.3164 59.0168L40.9707 58.6868L14.4922 33.3987V70.6917H0.5V3.18774L1.34473 3.99438Z" fill="white" stroke="#391707"/>
<path d="M77.556 70.192H64.5696L64.5642 16.3352L41.3589 38.2806V22.9576L64.6288 0.694458H77.3675L77.556 70.192Z" fill="#FECC00"/>
</svg>
