<svg width="90" height="42" viewBox="0 0 90 42" fill="none" xmlns="http://www.w3.org/2000/svg">
<path d="M68.6371 0.00318818C57.0431 0.206149 47.8072 9.74208 48.0075 21.3044C48.211 32.8667 57.7731 42.0773 69.3672 41.8775C80.9613 41.6746 90.1971 32.1386 89.9968 20.5763C89.7933 9.014 80.2312 -0.196551 68.6371 0.00318818ZM69.2347 34.1489C61.921 34.2778 55.8898 28.466 55.7606 21.1723C55.6313 13.8786 61.4591 7.86389 68.7728 7.73503C76.0865 7.60616 82.1178 13.4179 82.247 20.7116C82.3762 28.0053 76.5485 34.0201 69.2347 34.1489Z" fill="#FECC00"/>
<path d="M0 2.60624L24.1896 25.6181L35.9451 14.5294V23.6981L24.1896 34.8996L7.79506 19.2845V42H0V2.60624Z" fill="white"/>
<path d="M45.9335 42H38.1417L38.1384 9.77433L24.2152 22.9056V13.7369L38.1772 0.415591H45.8204L45.9335 42Z" fill="#FECC00"/>
</svg>
