<svg width="65" height="30" viewBox="0 0 65 30" fill="none" xmlns="http://www.w3.org/2000/svg">
<path d="M48.8924 0.00227726C40.6336 0.147249 34.0547 6.9586 34.1973 15.2174C34.3423 23.4761 41.1537 30.0551 49.4125 29.9124C57.6713 29.7674 64.2502 22.9561 64.1076 14.6973C63.9626 6.43855 57.1512 -0.140393 48.8924 0.00227726ZM49.3181 24.392C44.1084 24.484 39.8121 20.3328 39.7201 15.123C39.628 9.91326 43.7793 5.61704 48.9891 5.525C54.1988 5.43295 58.4951 9.5842 58.5871 14.794C58.6792 20.0037 54.5279 24.3 49.3181 24.392Z" fill="#999999"/>
<path d="M0 1.86182L17.2309 18.2988L25.6048 10.3783V16.9273L17.2309 24.9284L5.55265 13.7748V30.0001H0V1.86182Z" fill="#999999"/>
<path d="M32.7198 29.9999H27.1695L27.1672 6.98167L17.2493 16.3611V9.81206L27.1948 0.296875H32.6393L32.7198 29.9999Z" fill="#999999"/>
</svg>
